PathFileType	4	(X/Y/Z)	G:\マイドライブ\biomec\experimentalData\240725\SJ1.trc
DataRate	CameraRate	NumFrames	NumMarkers	Units	OrigDataRate	OrigDataStartFrame	OrigNumFrames
200.00	200.00	      6	52	mm	200.00	1720	      2292
Frame#	Time	handR			wrRI			wrRO			elbRI			elbRO			shRF			shRU			shRB			handL			wrLI			wrLO			elbLI			elbLO			shLF			shLU			shLB			toeR			baRI			baRO			heelR			anRI			anRO			knRI			knRO			troR			toeL			baLI			baLO			heelL			anLI			anLO			knLI			knLO			troL			head			earR			earL			clav			c7			ribR			ribL			xiph			ASISR			ASISL			PSISR			PSISL			t8			t11			L1			L3			LS			COX			
		X1	Y1	Z1	X2	Y2	Z2	X3	Y3	Z3	X4	Y4	Z4	X5	Y5	Z5	X6	Y6	Z6	X7	Y7	Z7	X8	Y8	Z8	X9	Y9	Z9	X10	Y10	Z10	X11	Y11	Z11	X12	Y12	Z12	X13	Y13	Z13	X14	Y14	Z14	X15	Y15	Z15	X16	Y16	Z16	X17	Y17	Z17	X18	Y18	Z18	X19	Y19	Z19	X20	Y20	Z20	X21	Y21	Z21	X22	Y22	Z22	X23	Y23	Z23	X24	Y24	Z24	X25	Y25	Z25	X26	Y26	Z26	X27	Y27	Z27	X28	Y28	Z28	X29	Y29	Z29	X30	Y30	Z30	X31	Y31	Z31	X32	Y32	Z32	X33	Y33	Z33	X34	Y34	Z34	X35	Y35	Z35	X36	Y36	Z36	X37	Y37	Z37	X38	Y38	Z38	X39	Y39	Z39	X40	Y40	Z40	X41	Y41	Z41	X42	Y42	Z42	X43	Y43	Z43	X44	Y44	Z44	X45	Y45	Z45	X46	Y46	Z46	X47	Y47	Z47	X48	Y48	Z48	X49	Y49	Z49	X50	Y50	Z50	X51	Y51	Z51	X52	Y52	Z52	

1720	8.595	699.00513	761.36011	1039.84680	667.09564	697.72290	1009.68329	617.47522	738.74414	1042.64844	509.01184	596.92615	1172.22937	572.14917	548.18463	1185.51697	683.14532	741.27576	1404.68359	576.24854	717.00317	1399.54663	629.53210	710.76593	1434.50769	706.53778	1050.46167	1049.44238	671.44769	1116.01709	1017.54761	626.02216	1070.59888	1058.12415	534.45343	1228.94092	1177.40271	603.19751	1275.50403	1184.55579	693.60577	1064.76990	1400.62854	642.86176	1100.80127	1428.82861	580.69348	1086.36536	1385.04663	826.07318	732.47168	51.99095	748.85718	788.49640	35.85659	714.16425	668.43958	43.37078	541.95190	773.75653	39.89300	632.48138	801.46228	111.58965	602.80560	710.76013	101.65616	627.01178	825.36963	468.42282	634.62933	720.26135	477.30420	654.95166	732.67145	875.62262	798.04144	1083.15979	51.12563	730.31726	1028.37451	52.36140	694.86395	1139.12732	46.93559	512.71985	1059.92163	38.22633	606.31085	1020.49316	126.66257	576.31873	1106.83862	106.38893	613.91406	990.34875	472.56158	615.18408	1095.85229	485.98358	653.33856	1076.27417	866.94061	669.60028	911.73029	1713.76660	709.09344	816.86084	1554.95654	747.35931	972.03809	1552.56738	713.86554	905.07031	1391.35913	598.20447	913.34375	1475.34656	699.34985	798.76221	1095.63208	703.54828	1016.22345	1091.65771	745.87970	904.50824	1235.13184	721.23932	799.10736	961.71832	718.26898	1020.21625	970.26746	548.65588	847.85522	996.71436	549.93152	969.45776	1000.06726	530.85028	913.09918	1260.99634	546.04883	913.07373	1135.95740	554.30811	915.02075	1077.52258	551.64868	910.10291	1030.29077	538.61591	909.71735	991.21912	513.61383	909.41357	886.25446	
1721	8.600	699.00128	761.36780	1039.81616	667.08124	697.72034	1009.68005	617.46667	738.78607	1042.62085	508.94315	597.02020	1172.18176	572.12054	548.27118	1185.44971	682.99451	741.37860	1404.72241	576.11993	717.10254	1399.51855	629.39490	710.82532	1434.50525	706.38977	1050.56750	1049.46692	671.43317	1116.16687	1017.55328	626.00903	1070.77271	1058.12805	534.05194	1229.16748	1177.44141	603.48242	1275.63013	1184.63916	693.69745	1064.82642	1400.62964	642.96271	1100.89307	1428.82239	580.82001	1086.53625	1385.02039	826.08942	732.46185	51.99091	748.84192	788.49017	35.86411	714.14893	668.42609	43.33868	541.92902	773.71350	39.86702	632.45160	801.39325	111.58835	602.75299	710.68213	101.61021	626.87738	825.26984	468.39539	634.55212	720.15247	477.29474	654.98535	732.74048	875.53430	798.03198	1083.12634	51.12234	730.31805	1028.37976	52.36596	694.84222	1139.12866	46.94160	512.71173	1059.92419	38.23152	606.28961	1020.46991	126.69256	576.29028	1106.83801	106.38823	614.03778	990.35413	472.57559	615.25592	1095.87061	486.03418	653.33386	1076.33496	867.02844	669.60553	911.96765	1713.72009	708.32587	817.76556	1555.17346	747.76581	971.75092	1552.45691	713.84119	905.07324	1391.34546	598.18274	913.50092	1475.34143	699.32086	798.75751	1095.61719	703.51056	1016.32629	1091.65015	745.88177	904.48010	1235.15833	721.29468	799.12323	961.66608	719.01202	1019.15143	970.87231	548.74640	847.87860	996.70880	549.96899	969.47278	1000.09637	530.70282	913.22510	1260.99048	546.08698	913.09839	1135.93091	554.38654	915.00513	1077.49341	551.70746	910.10406	1030.30249	538.68689	909.73584	991.23145	513.64508	909.45074	886.28876	
1722	8.605	699.01526	761.35303	1039.77734	667.07721	697.71875	1009.66571	617.46228	738.82556	1042.58386	508.84723	597.12256	1172.14417	572.00610	548.39789	1185.43726	682.84674	741.49036	1404.74475	575.98602	717.23425	1399.52917	629.25232	710.90485	1434.49292	706.33997	1050.68787	1049.50195	671.43518	1116.29614	1017.58374	625.99060	1070.95691	1058.12390	534.25494	1229.37122	1177.49756	603.72882	1275.79663	1184.72583	693.80310	1064.87024	1400.64050	643.10217	1100.99817	1428.82861	580.96802	1086.67993	1385.03540	826.07312	732.46490	51.98949	748.76788	788.46094	35.89603	714.14313	668.42047	43.31721	541.93561	773.69562	39.88054	632.41193	801.32825	111.62492	602.72217	710.60095	101.54520	626.74213	825.12860	468.35535	634.42493	720.02509	477.28006	655.01465	732.83484	875.44043	798.04230	1083.13123	51.15249	730.32642	1028.38721	52.36726	694.85382	1139.12378	46.96795	512.72943	1059.92285	38.25400	606.31152	1020.46814	126.73522	576.32214	1106.80664	106.44610	614.20544	990.34412	472.61594	615.38904	1095.91528	486.08005	653.35083	1076.44495	867.11578	669.65295	912.21643	1713.69934	707.76849	817.75525	1555.18567	748.17242	971.47552	1552.33252	713.78699	905.12189	1391.35291	598.15332	913.65454	1475.36157	699.31805	798.77515	1095.60632	703.44641	1016.42017	1091.65393	745.83502	904.47601	1235.17542	721.34283	799.15277	961.62317	719.10968	1019.17767	971.44257	548.79742	847.91595	996.72528	550.01752	969.45459	1000.12866	530.68365	913.35791	1260.97595	546.10638	913.12158	1135.92432	554.45050	914.99554	1077.47803	551.78577	910.12427	1030.32288	538.76044	909.76227	991.25250	513.66052	909.52710	886.37079	
1723	8.610	699.05609	761.35767	1039.73865	667.08942	697.74091	1009.64984	617.43884	738.87756	1042.54065	508.79880	597.22369	1172.09412	571.76160	548.58545	1185.47693	682.66449	741.63123	1404.78503	575.84290	717.33118	1399.52844	629.09943	711.00098	1434.50500	706.26947	1050.82520	1049.56421	671.43903	1116.48193	1017.58710	625.96161	1071.18628	1058.14221	534.44269	1229.66345	1177.55481	603.99738	1275.93982	1184.79846	693.87811	1064.90271	1400.66248	643.24530	1101.15259	1428.80908	581.09186	1086.83545	1385.03186	826.05200	732.45068	51.94875	748.79242	788.50537	35.90793	714.16077	668.38770	43.25972	541.94513	773.66565	39.86813	632.38129	801.20453	111.67099	602.68451	710.50739	101.48690	626.56726	824.97681	468.27063	634.31873	719.91815	477.24341	655.01196	732.93066	875.36945	798.02277	1083.11902	51.15472	730.30164	1028.35559	52.37278	694.83929	1139.09790	46.96584	512.72424	1059.92285	38.25665	606.33301	1020.44922	126.75238	576.34155	1106.82068	106.42978	614.40057	990.36810	472.63669	615.50085	1095.96838	486.10580	653.34753	1076.57642	867.19116	669.70111	912.45721	1713.68530	707.29950	817.79883	1555.16077	748.52130	971.15973	1552.24939	713.76453	905.13379	1391.35657	598.17334	913.80292	1475.37317	699.33459	798.78558	1095.56458	703.41034	1016.53479	1091.68213	745.83087	904.48773	1235.21838	721.38629	799.14313	961.53876	719.19269	1019.20935	971.51941	548.87469	847.94934	996.74426	550.08087	969.46881	1000.16675	530.68164	913.50555	1260.93994	546.15125	913.15851	1135.91785	554.50000	914.97528	1077.48474	551.86810	910.13947	1030.33545	538.81671	909.79608	991.27698	513.65936	909.58447	886.44470	
1724	8.615	699.07367	761.39099	1039.71045	667.10614	697.75360	1009.61945	617.43994	738.95264	1042.50464	508.71136	597.36005	1172.04883	571.63391	548.73029	1185.44849	682.48706	741.81787	1404.81995	575.67554	717.45874	1399.53369	628.93744	711.13342	1434.49866	706.18195	1050.98071	1049.60559	671.42218	1116.66345	1017.57733	625.92316	1071.47559	1058.17761	535.04315	1230.00232	1177.62561	604.21362	1276.14001	1184.83789	693.97137	1064.97620	1400.64429	643.39697	1101.30518	1428.81311	581.20361	1087.00659	1385.03210	826.06525	732.43750	51.93623	748.75555	788.44171	35.90734	714.16412	668.35321	43.19707	541.92926	773.60577	39.84699	632.33661	801.04413	111.69187	602.63733	710.43262	101.42294	626.38794	824.81708	468.20856	634.20508	719.77960	477.20865	655.03308	733.04205	875.29248	798.01257	1083.12000	51.15739	730.30975	1028.33875	52.35086	694.82373	1139.07507	46.98200	512.74127	1059.91675	38.28398	606.34161	1020.44135	126.75418	576.34625	1106.81970	106.48335	614.60468	990.35931	472.67413	615.68762	1096.00403	486.17535	653.36621	1076.70288	867.30945	669.76929	912.71533	1713.67603	706.86816	817.77789	1555.17285	748.88440	970.91718	1552.10779	713.70697	905.19690	1391.38635	598.15912	913.98657	1475.41650	699.33087	798.78711	1095.57056	703.36157	1016.65436	1091.68750	745.81500	904.47614	1235.23279	721.42590	799.17303	961.48474	719.18842	1019.29248	971.58191	548.94427	847.98627	996.76764	550.13800	969.46332	1000.24988	530.76935	913.67883	1260.94458	546.20007	913.19153	1135.90308	554.59235	914.99280	1077.47998	551.92566	910.15222	1030.38208	538.87408	909.82269	991.33978	513.68091	909.66559	886.51935	
1725	8.620	699.10901	761.40442	1039.66797	667.10236	697.78339	1009.61224	617.44153	739.00348	1042.45190	508.59192	597.51410	1171.98010	571.49841	548.89575	1185.44043	682.32288	741.95544	1404.81873	575.53363	717.56757	1399.53577	628.73334	711.29950	1434.51208	706.11517	1051.14612	1049.62463	671.43042	1116.83655	1017.59509	625.87183	1071.77075	1058.20618	534.86432	1230.30566	1177.69604	604.46533	1276.43359	1184.95117	694.09326	1065.05115	1400.68652	643.56085	1101.49219	1428.82898	581.38129	1087.17737	1385.03552	826.05487	732.41516	51.92417	748.80066	788.41663	35.94516	714.16785	668.31696	43.14650	541.93719	773.57959	39.86282	632.30634	800.85956	111.70906	602.57745	710.33447	101.35466	626.20953	824.65338	468.12225	634.05353	719.66272	477.16617	655.02551	733.13904	875.22534	798.00366	1083.11340	51.19645	730.30365	1028.33508	52.35476	694.83771	1139.07507	46.99815	512.73651	1059.91089	38.29520	606.38806	1020.43372	126.76854	576.32599	1106.81152	106.45441	615.59821	990.67102	472.71518	615.83136	1096.03101	486.20602	653.35779	1076.85303	867.43695	669.85187	912.98456	1713.67798	706.39362	817.71973	1555.23926	750.08472	970.01105	1552.12048	713.64990	905.24805	1391.41614	598.35559	914.03394	1475.39307	699.33868	798.81775	1095.55725	703.30640	1016.77966	1091.68652	745.81403	904.48773	1235.28748	721.47339	799.20264	961.40399	718.56201	1020.53693	970.90393	548.94684	848.55847	997.32159	550.20599	969.47211	1000.35791	530.62848	913.91620	1260.94519	546.22803	913.25262	1135.89807	554.68066	914.98962	1077.49292	552.03979	910.16333	1030.41589	538.93988	909.85059	991.39764	513.69379	909.76056	886.61798	
